<svg width="430" height="822" viewBox="0 0 430 822" fill="none" xmlns="http://www.w3.org/2000/svg">
<path fill-rule="evenodd" clip-rule="evenodd" d="M18 0C8.05888 0 0 8.05886 0 18V205.663C1.41662 205.233 2.92914 205 4.5 205C12.5081 205 19 211.044 19 218.5C19 225.956 12.5081 232 4.5 232C2.92914 232 1.41662 231.768 0 231.337V822H13.6074C13.609 814.389 22.1377 808.22 32.6581 808.22C43.1784 808.22 51.7071 814.389 51.7087 822H73.4805C73.4821 814.389 82.0107 808.22 92.5311 808.22C103.051 808.22 111.58 814.389 111.582 822H133.354C133.356 814.389 141.885 808.22 152.405 808.22C162.926 808.22 171.454 814.389 171.456 822H193.228C193.229 814.389 201.758 808.22 212.278 808.22C222.799 808.22 231.327 814.389 231.329 822H253.102C253.103 814.389 261.632 808.22 272.152 808.22C282.673 808.22 291.201 814.389 291.203 822H312.975C312.976 814.389 321.505 808.22 332.025 808.22C342.546 808.22 351.074 814.389 351.076 822H372.848C372.849 814.389 381.378 808.22 391.898 808.22C402.419 808.22 410.947 814.389 410.949 822H430V229.241C428.569 229.681 427.039 229.919 425.449 229.919C417.441 229.919 410.949 223.875 410.949 216.419C410.949 208.963 417.441 202.919 425.449 202.919C427.039 202.919 428.569 203.157 430 203.597V18C430 8.05887 421.941 0 412 0H18Z" fill="white"/>
</svg>
